<?xml version="1.0" encoding="UTF-8" standalone="no"?>
<!-- Created with Inkscape (http://www.inkscape.org/) -->

<svg
   xmlns:dc="http://purl.org/dc/elements/1.1/"
   xmlns:cc="http://creativecommons.org/ns#"
   xmlns:rdf="http://www.w3.org/1999/02/22-rdf-syntax-ns#"
   xmlns:svg="http://www.w3.org/2000/svg"
   xmlns="http://www.w3.org/2000/svg"
   xmlns:sodipodi="http://sodipodi.sourceforge.net/DTD/sodipodi-0.dtd"
   xmlns:inkscape="http://www.inkscape.org/namespaces/inkscape"
   width="500"
   height="500"
   viewBox="0 0 132.29167 132.29167"
   version="1.1"
   id="svg8"
   inkscape:version="0.92.5 (2060ec1f9f, 2020-04-08)"
   sodipodi:docname="TOLogo.svg">
  <defs
     id="defs2" />
  <sodipodi:namedview
     id="base"
     pagecolor="#ffffff"
     bordercolor="#666666"
     borderopacity="1.0"
     inkscape:pageopacity="0.0"
     inkscape:pageshadow="2"
     inkscape:zoom="0.98994949"
     inkscape:cx="236.40244"
     inkscape:cy="263.0169"
     inkscape:document-units="mm"
     inkscape:current-layer="layer1"
     showgrid="false"
     units="px"
     width="512px"
     inkscape:window-width="1920"
     inkscape:window-height="1016"
     inkscape:window-x="0"
     inkscape:window-y="27"
     inkscape:window-maximized="1" />
  <metadata
     id="metadata5">
    <rdf:RDF>
      <cc:Work
         rdf:about="">
        <dc:format>image/svg+xml</dc:format>
        <dc:type
           rdf:resource="http://purl.org/dc/dcmitype/StillImage" />
        <dc:title></dc:title>
      </cc:Work>
    </rdf:RDF>
  </metadata>
  <g
     inkscape:label="Layer 1"
     inkscape:groupmode="layer"
     id="layer1"
     transform="translate(0,-164.70834)">
    <rect
       style="fill:#ffcc00;stroke-width:0.28001735"
       id="rect3732"
       width="105.83334"
       height="26.458334"
       x="13.229167"
       y="177.9375" />
    <rect
       style="fill:#ffcc00;stroke-width:0.28001735"
       id="rect3732-3"
       width="26.458334"
       height="105.83334"
       x="26.458334"
       y="177.9375" />
    <path
       style="fill:#ffcc00;stroke-width:0.26458332"
       d="M 92.604166,217.625 A 26.458333,26.458333 0 0 0 66.145833,244.08333 26.458333,26.458333 0 0 0 92.604166,270.54167 26.458333,26.458333 0 0 0 119.0625,244.08333 26.458333,26.458333 0 0 0 92.604166,217.625 Z m 0,13.22917 A 13.229167,13.229167 0 0 1 105.83333,244.08333 13.229167,13.229167 0 0 1 92.604166,257.3125 13.229167,13.229167 0 0 1 79.374999,244.08333 13.229167,13.229167 0 0 1 92.604166,230.85417 Z"
       id="path3751"
       inkscape:connector-curvature="0" />
  </g>
</svg>
