<?xml version="1.0" encoding="UTF-8" standalone="no"?>
<!-- Created with Inkscape (http://www.inkscape.org/) -->

<svg
   xmlns:dc="http://purl.org/dc/elements/1.1/"
   xmlns:cc="http://creativecommons.org/ns#"
   xmlns:rdf="http://www.w3.org/1999/02/22-rdf-syntax-ns#"
   xmlns:svg="http://www.w3.org/2000/svg"
   xmlns="http://www.w3.org/2000/svg"
   xmlns:sodipodi="http://sodipodi.sourceforge.net/DTD/sodipodi-0.dtd"
   xmlns:inkscape="http://www.inkscape.org/namespaces/inkscape"
   width="1000"
   height="500"
   viewBox="0 0 264.58334 132.29167"
   version="1.1"
   id="svg8"
   inkscape:version="0.92.5 (2060ec1f9f, 2020-04-08)"
   sodipodi:docname="TOLogoLong.svg">
  <defs
     id="defs2" />
  <sodipodi:namedview
     id="base"
     pagecolor="#ffffff"
     bordercolor="#666666"
     borderopacity="1.0"
     inkscape:pageopacity="0.0"
     inkscape:pageshadow="2"
     inkscape:zoom="1"
     inkscape:cx="693.60735"
     inkscape:cy="225.66019"
     inkscape:document-units="mm"
     inkscape:current-layer="layer1"
     showgrid="false"
     units="px"
     width="512px"
     inkscape:window-width="1920"
     inkscape:window-height="1016"
     inkscape:window-x="0"
     inkscape:window-y="27"
     inkscape:window-maximized="1"
     inkscape:snap-global="true" />
  <metadata
     id="metadata5">
    <rdf:RDF>
      <cc:Work
         rdf:about="">
        <dc:format>image/svg+xml</dc:format>
        <dc:type
           rdf:resource="http://purl.org/dc/dcmitype/StillImage" />
        <dc:title></dc:title>
      </cc:Work>
    </rdf:RDF>
  </metadata>
  <g
     inkscape:label="Layer 1"
     inkscape:groupmode="layer"
     id="layer1"
     transform="translate(0,-164.70834)">
    <rect
       style="fill:#ffcc00;stroke-width:0.28001735"
       id="rect3732"
       width="105.83334"
       height="26.458334"
       x="13.229167"
       y="177.9375" />
    <rect
       style="fill:#ffcc00;stroke-width:0.28001735"
       id="rect3732-3"
       width="26.458334"
       height="105.83334"
       x="26.458334"
       y="177.9375" />
    <path
       style="fill:#ffcc00;stroke-width:0.26458332"
       d="M 92.604166,217.625 A 26.458333,26.458333 0 0 0 66.145833,244.08333 26.458333,26.458333 0 0 0 92.604166,270.54167 26.458333,26.458333 0 0 0 119.0625,244.08333 26.458333,26.458333 0 0 0 92.604166,217.625 Z m 0,13.22917 A 13.229167,13.229167 0 0 1 105.83333,244.08333 13.229167,13.229167 0 0 1 92.604166,257.3125 13.229167,13.229167 0 0 1 79.374999,244.08333 13.229167,13.229167 0 0 1 92.604166,230.85417 Z"
       id="path3751"
       inkscape:connector-curvature="0" />
    <g
       id="g3885"
       transform="matrix(0.50000001,0,0,0.50000001,39.687499,69.125001)">
      <path
         id="path3751-8"
         transform="matrix(0.26458333,0,0,0.26458333,0,164.70834)"
         d="m 800,200 a 99.999999,99.999999 0 0 0 -100,100 99.999999,99.999999 0 0 0 100,100 99.999999,99.999999 0 0 0 76.7168,-36 l -31.12305,-17.37891 -14.0625,-7.85156 A 50.000001,50.000001 0 0 1 800,350 a 50.000001,50.000001 0 0 1 -50,-50 50.000001,50.000001 0 0 1 0.47656,-6.49219 L 750,293.24219 l 0.55664,-0.25977 A 50.000001,50.000001 0 0 1 800,250 a 50.000001,50.000001 0 0 1 26.41211,7.61719 L 850,246.62109 875.63672,234.66797 A 99.999999,99.999999 0 0 0 800,200 Z"
         style="fill:#ffcc00;stroke-width:0.99999994"
         inkscape:connector-curvature="0" />
      <rect
         transform="rotate(65)"
         y="-114.12357"
         x="303.46014"
         height="39.6875"
         width="13.229167"
         id="rect3732-3-6"
         style="fill:#ffcc00;stroke-width:0.12125105" />
    </g>
    <g
       id="g3921"
       transform="matrix(0.56568531,0,0,0.56568531,82.176629,51.354392)">
      <rect
         transform="rotate(-45)"
         y="277.09671"
         x="-52.590313"
         height="52.916672"
         width="13.229167"
         id="rect3732-3-5"
         style="fill:#ffcc00;stroke-width:0.14000867" />
      <rect
         transform="rotate(45)"
         y="19.517399"
         x="296.94046"
         height="52.916672"
         width="13.229167"
         id="rect3732-3-5-9"
         style="fill:#ffcc00;stroke-width:0.14000867" />
    </g>
    <g
       id="g3980"
       transform="matrix(0.5,0,0,0.5,125.67708,62.51042)">
      <path
         inkscape:connector-curvature="0"
         id="path3925"
         d="m 185.20833,257.31251 a 26.458333,26.458333 0 0 0 7.7494,18.70893 26.458333,26.458333 0 0 0 18.70894,7.7494 v -13.22917 a 13.229167,13.229167 0 0 1 -9.35447,-3.8747 13.229167,13.229167 0 0 1 -3.8747,-9.35446 z"
         style="fill:#ffcc00;stroke-width:0.26458332" />
      <rect
         y="217.625"
         x="185.20833"
         height="39.6875"
         width="13.229167"
         id="rect3732-3-4"
         style="fill:#ffcc00;stroke-width:0.12125106" />
      <rect
         y="230.85417"
         x="171.97917"
         height="13.229167"
         width="39.6875"
         id="rect3732-3-4-8"
         style="fill:#ffcc00;stroke-width:0.12125106" />
    </g>
    <g
       id="g4033"
       transform="matrix(0.49999998,0,0,0.49999998,39.687506,122.04167)">
      <path
         id="path3751-1"
         transform="matrix(0.26458333,0,0,0.26458333,0,164.70834)"
         d="M 800,200 A 99.999999,99.999999 0 0 0 700,300 h 50 a 50.000001,50.000001 0 0 1 50,-50 50.000001,50.000001 0 0 1 50,50 h 50 A 99.999999,99.999999 0 0 0 800,200 Z"
         style="fill:#ffcc00;stroke-width:0.99999994"
         inkscape:connector-curvature="0" />
      <rect
         y="244.08334"
         x="185.20833"
         height="26.458334"
         width="13.229167"
         id="rect3732-3-0"
         style="fill:#ffcc00;stroke-width:0.09900108" />
      <rect
         y="244.08334"
         x="224.89583"
         height="26.458334"
         width="13.229167"
         id="rect3732-3-0-3"
         style="fill:#ffcc00;stroke-width:0.09900108" />
    </g>
    <g
       id="g4064"
       transform="translate(-30.0302,-3.0427133)">
      <path
         inkscape:connector-curvature="0"
         id="path3925-4"
         d="m 208.62395,247.12605 a 13.229167,13.229167 0 0 0 3.8747,9.35447 13.229167,13.229167 0 0 0 9.35447,3.8747 v -6.61459 a 6.6145836,6.6145836 0 0 1 -4.67724,-1.93735 6.6145836,6.6145836 0 0 1 -1.93735,-4.67723 z"
         style="fill:#ffcc00;stroke-width:0.13229166" />
      <rect
         y="227.28229"
         x="208.62396"
         height="19.84375"
         width="6.6145835"
         id="rect3732-3-4-4"
         style="fill:#ffcc00;stroke-width:0.06062553" />
    </g>
    <g
       id="g4096"
       transform="translate(2.1166667,-1.8520848)">
      <path
         id="path3751-1-7"
         d="M 222.77917,259.16459 A 13.229166,13.229166 0 0 1 209.55,245.93542 h 6.61458 a 6.6145831,6.6145831 0 0 0 6.61459,6.61459 6.6145831,6.6145831 0 0 0 6.61458,-6.61459 h 6.61458 a 13.229166,13.229166 0 0 1 -13.22916,13.22917 z"
         style="fill:#ffcc00;stroke-width:0.13229164"
         inkscape:connector-curvature="0" />
      <rect
         transform="scale(1,-1)"
         y="-245.93542"
         x="209.55"
         height="13.229166"
         width="6.614583"
         id="rect3732-3-0-6"
         style="fill:#ffcc00;stroke-width:0.04950054" />
      <rect
         transform="scale(1,-1)"
         y="-285.62292"
         x="229.39375"
         height="52.916668"
         width="6.614583"
         id="rect3732-3-0-3-3"
         style="fill:#ffcc00;stroke-width:0.09900108" />
    </g>
  </g>
</svg>
